<svg xmlns="http://www.w3.org/2000/svg" xmlns:xlink="http://www.w3.org/1999/xlink" width="1024" height="400">\n<path  d="M 0 0
L 1024 0
L 1024 400
L 0 400
L 0 0" style="stroke-width:0;stroke:rgba(255,255,255,1.0);fill:rgba(255,255,255,1.0)"/><path  d="M 38 11
L 947 11
L 947 351
L 38 351
L 38 11" style="stroke-width:0;stroke:rgba(255,255,255,1.0);fill:rgba(255,255,255,1.0)"/><path  d="M 38 351
L 947 351" style="stroke-width:1;stroke:rgba(51,51,51,1.0);fill:none"/><path  d="M 38 351
L 38 356" style="stroke-width:1;stroke:rgba(51,51,51,1.0);fill:none"/><text x="5" y="373" style="stroke-width:0;stroke:none;fill:rgba(51,51,51,1.0);font-size:12.8px;font-family:'Roboto Medium',sans-serif">2016-12-29</text><path  d="M 152 351
L 152 356" style="stroke-width:1;stroke:rgba(51,51,51,1.0);fill:none"/><text x="119" y="373" style="stroke-width:0;stroke:none;fill:rgba(51,51,51,1.0);font-size:12.8px;font-family:'Roboto Medium',sans-serif">2017-01-28</text><path  d="M 266 351
L 266 356" style="stroke-width:1;stroke:rgba(51,51,51,1.0);fill:none"/><text x="233" y="373" style="stroke-width:0;stroke:none;fill:rgba(51,51,51,1.0);font-size:12.8px;font-family:'Roboto Medium',sans-serif">2017-02-27</text><path  d="M 379 351
L 379 356" style="stroke-width:1;stroke:rgba(51,51,51,1.0);fill:none"/><text x="346" y="373" style="stroke-width:0;stroke:none;fill:rgba(51,51,51,1.0);font-size:12.8px;font-family:'Roboto Medium',sans-serif">2017-03-29</text><path  d="M 493 351
L 493 356" style="stroke-width:1;stroke:rgba(51,51,51,1.0);fill:none"/><text x="460" y="373" style="stroke-width:0;stroke:none;fill:rgba(51,51,51,1.0);font-size:12.8px;font-family:'Roboto Medium',sans-serif">2017-04-29</text><path  d="M 607 351
L 607 356" style="stroke-width:1;stroke:rgba(51,51,51,1.0);fill:none"/><text x="574" y="373" style="stroke-width:0;stroke:none;fill:rgba(51,51,51,1.0);font-size:12.8px;font-family:'Roboto Medium',sans-serif">2017-05-29</text><path  d="M 720 351
L 720 356" style="stroke-width:1;stroke:rgba(51,51,51,1.0);fill:none"/><text x="687" y="373" style="stroke-width:0;stroke:none;fill:rgba(51,51,51,1.0);font-size:12.8px;font-family:'Roboto Medium',sans-serif">2017-06-28</text><path  d="M 834 351
L 834 356" style="stroke-width:1;stroke:rgba(51,51,51,1.0);fill:none"/><text x="801" y="373" style="stroke-width:0;stroke:none;fill:rgba(51,51,51,1.0);font-size:12.8px;font-family:'Roboto Medium',sans-serif">2017-07-28</text><path  d="M 947 351
L 947 356" style="stroke-width:1;stroke:rgba(51,51,51,1.0);fill:none"/><text x="914" y="373" style="stroke-width:0;stroke:none;fill:rgba(51,51,51,1.0);font-size:12.8px;font-family:'Roboto Medium',sans-serif">2017-08-27</text><text x="478" y="395" style="stroke-width:0;stroke:none;fill:rgba(51,51,51,1.0);font-size:12.8px;font-family:'Roboto Medium',sans-serif">Time</text><path  d="M 948 351
L 948 11" style="stroke-width:1;stroke:rgba(51,51,51,1.0);fill:none"/><path  d="M 948 351
L 953 351" style="stroke-width:1;stroke:rgba(51,51,51,1.0);fill:none"/><text x="958" y="357" style="stroke-width:0;stroke:none;fill:rgba(51,51,51,1.0);font-size:12.8px;font-family:'Roboto Medium',sans-serif">0.00</text><path  d="M 948 308
L 953 308" style="stroke-width:1;stroke:rgba(51,51,51,1.0);fill:none"/><text x="958" y="314" style="stroke-width:0;stroke:none;fill:rgba(51,51,51,1.0);font-size:12.8px;font-family:'Roboto Medium',sans-serif">39.00</text><path  d="M 948 265
L 953 265" style="stroke-width:1;stroke:rgba(51,51,51,1.0);fill:none"/><text x="958" y="271" style="stroke-width:0;stroke:none;fill:rgba(51,51,51,1.0);font-size:12.8px;font-family:'Roboto Medium',sans-serif">78.00</text><path  d="M 948 222
L 953 222" style="stroke-width:1;stroke:rgba(51,51,51,1.0);fill:none"/><text x="958" y="228" style="stroke-width:0;stroke:none;fill:rgba(51,51,51,1.0);font-size:12.8px;font-family:'Roboto Medium',sans-serif">117.00</text><path  d="M 948 181
L 953 181" style="stroke-width:1;stroke:rgba(51,51,51,1.0);fill:none"/><text x="958" y="187" style="stroke-width:0;stroke:none;fill:rgba(51,51,51,1.0);font-size:12.8px;font-family:'Roboto Medium',sans-serif">155.00</text><path  d="M 948 138
L 953 138" style="stroke-width:1;stroke:rgba(51,51,51,1.0);fill:none"/><text x="958" y="144" style="stroke-width:0;stroke:none;fill:rgba(51,51,51,1.0);font-size:12.8px;font-family:'Roboto Medium',sans-serif">194.00</text><path  d="M 948 95
L 953 95" style="stroke-width:1;stroke:rgba(51,51,51,1.0);fill:none"/><text x="958" y="101" style="stroke-width:0;stroke:none;fill:rgba(51,51,51,1.0);font-size:12.8px;font-family:'Roboto Medium',sans-serif">233.00</text><path  d="M 948 52
L 953 52" style="stroke-width:1;stroke:rgba(51,51,51,1.0);fill:none"/><text x="958" y="58" style="stroke-width:0;stroke:none;fill:rgba(51,51,51,1.0);font-size:12.8px;font-family:'Roboto Medium',sans-serif">272.00</text><path  d="M 948 11
L 953 11" style="stroke-width:1;stroke:rgba(51,51,51,1.0);fill:none"/><text x="958" y="17" style="stroke-width:0;stroke:none;fill:rgba(51,51,51,1.0);font-size:12.8px;font-family:'Roboto Medium',sans-serif">310.00</text><text x="1008" y="145" style="stroke-width:0;stroke:none;fill:rgba(51,51,51,1.0);font-size:12.8px;font-family:'Roboto Medium',sans-serif" transform="rotate(90.00,1008,145)">Repositories</text><path  d="M 38 351
L 39 349
L 39 348
L 39 347
L 39 346
L 39 345
L 39 344
L 44 343
L 46 342
L 54 341
L 58 340
L 60 338
L 62 337
L 64 336
L 66 335
L 66 334
L 84 333
L 106 332
L 108 331
L 125 330
L 138 329
L 145 327
L 149 326
L 163 325
L 167 324
L 172 323
L 181 322
L 214 321
L 240 320
L 256 319
L 257 318
L 264 317
L 274 315
L 274 314
L 276 313
L 309 312
L 324 311
L 325 310
L 329 309
L 334 308
L 340 307
L 340 306
L 364 304
L 367 303
L 367 302
L 382 301
L 394 300
L 405 299
L 421 298
L 427 297
L 432 296
L 446 295
L 449 293
L 462 292
L 462 291
L 463 290
L 469 289
L 472 288
L 472 287
L 473 286
L 475 285
L 479 284
L 481 283
L 501 281
L 509 280
L 513 279
L 522 278
L 523 277
L 524 276
L 529 275
L 529 274
L 532 273
L 532 272
L 533 270
L 537 269
L 541 268
L 541 267
L 551 266
L 552 265
L 559 264
L 563 263
L 566 262
L 567 261
L 570 259
L 570 258
L 570 257
L 573 256
L 575 255
L 578 254
L 581 253
L 583 252
L 592 251
L 597 250
L 606 249
L 614 247
L 622 246
L 625 245
L 627 244
L 627 243
L 630 242
L 633 241
L 636 240
L 636 239
L 636 238
L 638 236
L 638 235
L 638 234
L 642 233
L 650 232
L 655 231
L 662 230
L 664 229
L 671 228
L 679 227
L 683 225
L 683 224
L 684 223
L 688 222
L 690 221
L 696 220
L 697 219
L 697 218
L 697 217
L 698 216
L 699 215
L 701 213
L 705 212
L 706 211
L 709 210
L 712 209
L 713 208
L 717 207
L 724 206
L 726 205
L 726 204
L 727 202
L 728 201
L 735 200
L 736 199
L 740 198
L 742 197
L 743 196
L 745 195
L 745 194
L 748 193
L 751 191
L 751 190
L 754 189
L 754 188
L 754 187
L 756 186
L 757 185
L 758 184
L 759 183
L 762 182
L 763 181
L 764 179
L 765 178
L 765 177
L 765 176
L 766 175
L 766 174
L 768 173
L 768 172
L 768 171
L 768 170
L 769 168
L 769 167
L 769 166
L 773 165
L 773 164
L 776 163
L 777 162
L 777 161
L 778 160
L 778 159
L 778 157
L 779 156
L 780 155
L 781 154
L 781 153
L 781 152
L 787 151
L 788 150
L 791 149
L 791 148
L 793 147
L 795 145
L 796 144
L 796 143
L 797 142
L 799 141
L 802 140
L 802 139
L 804 138
L 804 137
L 805 136
L 806 134
L 806 133
L 808 132
L 810 131
L 810 130
L 811 129
L 812 128
L 818 127
L 818 126
L 819 125
L 822 123
L 823 122
L 825 121
L 826 120
L 827 119
L 827 118
L 827 117
L 828 116
L 828 115
L 830 114
L 831 113
L 833 111
L 836 110
L 837 109
L 838 108
L 838 107
L 840 106
L 840 105
L 841 104
L 841 103
L 841 102
L 843 100
L 844 99
L 844 98
L 845 97
L 848 96
L 848 95
L 850 94
L 855 93
L 856 92
L 856 91
L 856 89
L 858 88
L 859 87
L 860 86
L 860 85
L 866 84
L 868 83
L 869 82
L 869 81
L 870 80
L 872 79
L 872 77
L 876 76
L 876 75
L 880 74
L 883 73
L 883 72
L 884 71
L 884 70
L 885 69
L 885 68
L 886 66
L 887 65
L 889 64
L 891 63
L 891 62
L 894 61
L 896 60
L 897 59
L 898 58
L 900 57
L 900 55
L 900 54
L 902 53
L 905 52
L 905 51
L 906 50
L 906 49
L 906 48
L 908 47
L 910 46
L 910 45
L 910 43
L 911 42
L 913 41
L 918 40
L 918 39
L 920 38
L 921 37
L 924 36
L 924 35
L 927 34
L 928 32
L 928 31
L 929 30
L 930 29
L 930 28
L 931 27
L 931 26
L 931 25
L 931 24
L 936 23
L 938 21
L 938 20
L 943 19
L 943 18
L 944 17
L 946 16
L 946 15
L 947 14" style="stroke-width:1;stroke:rgba(0,116,217,1.0);fill:none"/></svg>